<?xml version="1.0" standalone="no"?><!DOCTYPE svg PUBLIC "-//W3C//DTD SVG 1.1//EN" "http://www.w3.org/Graphics/SVG/1.1/DTD/svg11.dtd"><svg t="1748182366049" class="icon" viewBox="0 0 1024 1024" version="1.1" xmlns="http://www.w3.org/2000/svg" p-id="25681" xmlns:xlink="http://www.w3.org/1999/xlink" width="256" height="256"><path d="M1024 269.664c0-98.304-80-178.24-178.336-178.24-4.8 0-9.536 0.16-14.304 0.544C785.12 34.304 715.424 0 640 0c-75.392 0-145.12 34.304-191.392 91.968-4.736-0.384-9.536-0.544-14.368-0.544C336 91.424 256 171.392 256 269.664c0 10.304 1.376 20.256 3.008 30.08-1.088 1.408-2.368 2.72-3.424 4.16-10.464-1.504-20.96-2.24-31.584-2.24-123.488 0-224 100.512-224 224 0 123.488 100.512 224 224 224 27.392 0 54.176-4.992 79.424-14.656 36.704 32 80.192 53.888 126.4 66.4L384 832l64 64-64 128 192-128-64-64 9.632-19.168c73.504-2.24 143.488-29.472 198.944-77.824 25.248 9.664 52.032 14.656 79.424 14.656 123.488 0 224-100.512 224-224 0-51.328-18.08-98.176-47.328-136C1005.824 357.92 1024 316.032 1024 269.664zM800 685.664c-34.24 0-65.824-11.008-91.872-29.28-38.016 45.792-91.488 77.472-152.448 88.256l-47.552 4.608C430.496 748 362.016 712 315.872 656.384c-26.016 18.304-57.632 29.28-91.872 29.28-88.384 0-160-71.584-160-160 0-88.32 71.616-160 160-160 21.632 0 42.112 4.416 60.864 12.16 1.12-2.176 2.496-4 3.616-6.08 11.264-20.544 25.12-39.328 41.344-56.096 46.176-47.808 110.336-78.016 182.176-78.016 99.424 0 184.672 57.344 227.072 140.16 11.296-4.672 23.328-7.68 35.744-9.664l25.152-2.496c24.672 0 47.744 6.08 68.608 16 22.624 10.848 42.048 26.752 57.28 46.4 20.992 27.04 34.08 60.672 34.08 97.6C960 614.08 888.384 685.664 800 685.664zM931.136 344.928c-36.96-26.88-82.016-43.264-131.136-43.264-10.624 0-21.12 0.736-31.584 2.24C708.672 222.528 614.368 173.664 512 173.664c-68.256 0-132.608 22.112-185.888 60.704 14.944-45.696 57.472-78.944 108.128-78.944 15.488 0 30.112 3.136 43.488 8.672C508.128 104.928 568.992 64 640 64s131.904 40.928 162.176 100.096c13.472-5.536 28.16-8.672 43.488-8.672 63.168 0 114.336 51.168 114.336 114.24C960 298.656 948.864 324.8 931.136 344.928z" fill="#40b25c" p-id="25682"></path></svg>