<?xml version="1.0" standalone="no"?><!DOCTYPE svg PUBLIC "-//W3C//DTD SVG 1.1//EN" "http://www.w3.org/Graphics/SVG/1.1/DTD/svg11.dtd"><svg t="1748182536300" class="icon" viewBox="0 0 1024 1024" version="1.1" xmlns="http://www.w3.org/2000/svg" p-id="32289" width="256" height="256" xmlns:xlink="http://www.w3.org/1999/xlink"><path d="M515.393091 903.768951a59.666854 59.666854 0 0 0-50.592336 27.868124 429.017447 429.017447 0 0 1-254.743722-732.59674 18.477641 18.477641 0 0 0-12.828184-31.937755c-4.89114 0-9.580063 1.921068-13.055679 5.358769A466.073837 466.073837 0 0 0 455.70096 968.137366a59.831156 59.831156 0 1 0 59.692131-64.355777z m0 86.15737a26.225105 26.225105 0 1 1 0-52.450211 26.225105 26.225105 0 0 1 0 52.450211z m57.252881-947.099144a59.932265 59.932265 0 1 0-1.049004 37.410271 429.055363 429.055363 0 0 1 205.528994 760.932492 18.490279 18.490279 0 0 0 11.77918 32.873012c3.981161-0.012639 7.848574-1.276499 11.071418-3.614642v0.126387A466.288693 466.288693 0 0 0 572.633333 42.814538z m-57.252881 43.603187a26.237744 26.237744 0 1 1 0-52.462849 26.237744 26.237744 0 0 1 0 52.450211z m59.692132-23.431973c0-0.935257 0.113747-1.870514 0.113747-2.919518a20.272322 20.272322 0 0 0-0.113747-2.679384c0 0.935257 0.113747 1.870514 0.113747 2.679384 0.025277 0.973173-0.012639 1.946345-0.113747 2.906879z m-2.098009 13.283173c0.126386-0.227495 0.126386-0.581376 0.227495-0.80887a2.199117 2.199117 0 0 0-0.227495 0.80887z m0.581376-2.325503z m0.581376-2.679384c0.126386-0.467628 0.126386-0.935257 0.240133-1.390247a5.88959 5.88959 0 0 0-0.240133 1.390247z m0.467628-2.679384c0.126386-0.467628 0.126386-1.049004 0.227495-1.516633a6.97651 6.97651 0 0 0-0.227495 1.516633z m0.227495-2.793132c0-0.594014 0.126386-1.17539 0.126386-1.870514a9.681171 9.681171 0 0 1-0.126386 1.857875z m-1.276499-19.362343c0.113747 0.353881 0.113747 0.581376 0.240134 0.935257-0.126386-0.353881-0.126386-0.707762-0.240134-0.935257z m0.467629 2.325503c0.113747 0.467628 0.113747 0.821509 0.240133 1.289138a5.017526 5.017526 0 0 0-0.252772-1.289138z m0.467628 2.45189l0.341242 2.451889-0.341242-2.451889z m0.45499 3.387146c0 0.581376 0.126386 1.263861 0.126386 1.857875 0-0.581376-0.126386-1.162752-0.126386-1.857875zM820.400546 570.349912a58.289246 58.289246 0 1 0-55.26862-76.817442H636.521482a791.884436 791.884436 0 0 0-14.332178-137.217334 359.972748 359.972748 0 0 0 101.083563-49.088342 292.874394 292.874394 0 0 1 73.683067 128.243925 81.999269 81.999269 0 0 1 23.431973-3.500894c6.041253 0 12.057229 0.669846 17.94682 1.984261-37.51138-150.904944-173.313191-256.652152-328.831226-256.007583-155.505396 0.63193-290.435143 107.466058-326.720578 258.686968a81.240953 81.240953 0 0 1 27.27411-4.777393c5.131274-0.025277 10.249909 0.480267 15.267435 1.516632a292.874394 292.874394 0 0 1 73.101691-126.133278 359.960109 359.960109 0 0 0 101.083563 49.075704 791.998183 791.998183 0 0 0-14.344817 137.217334h-119.965639a58.238692 58.238692 0 1 0 0.126386 37.309162h119.839253a812.030372 812.030372 0 0 0 11.197804 120.193134 357.343918 357.343918 0 0 0-107.958964 55.483476 293.518963 293.518963 0 0 1-63.066639-115.289355 81.695943 81.695943 0 0 1-15.280073 1.516633 78.536292 78.536292 0 0 1-27.27411-4.777393C219.118913 739.125843 354.036021 845.909417 509.490863 846.541347c155.480119 0.63193 291.269291-105.026808 328.843864-255.893836a81.190399 81.190399 0 0 1-41.277684-1.516632 293.784374 293.784374 0 0 1-63.546906 117.387363 360.023302 360.023302 0 0 0-107.958964-55.496115c6.711099-39.735774 10.452126-79.901261 11.197804-120.193133h128.357672a58.504103 58.504103 0 0 0 55.26862 39.520918z m0-83.932976a25.656368 25.656368 0 1 1 0 51.300097 25.656368 25.656368 0 0 1 0-51.300097z m-610.318236 51.527592a25.656368 25.656368 0 1 1 0.012639-51.300097 25.656368 25.656368 0 0 1-0.012639 51.300097z m403.613851-218.584673a346.386248 346.386248 0 0 0-38.484552-94.32191 294.871294 294.871294 0 0 1 118.335259 55.609862 320.894181 320.894181 0 0 1-79.850707 38.712048z m-106.796212-101.197311h7.924405c24.948606 3.955883 46.977695 46.168824 61.436259 110.979591a334.657622 334.657622 0 0 1-65.404781 6.294025c-21.953257 0-43.855959-2.110647-65.404781-6.294025 14.458564-64.810767 36.487653-107.023707 61.448898-110.979591z m-178.735152 62.485263a296.463758 296.463758 0 0 1 118.347897-55.609862 346.386248 346.386248 0 0 0-38.484552 94.32191 316.900382 316.900382 0 0 1-79.863345-38.712048z m110.297106 85.335862a388.13156 388.13156 0 0 0 72.393929 6.875401c24.266122 0.037916 48.46905-2.26231 72.292821-6.875401 6.470966 42.212941 9.946582 84.842955 10.363656 127.548801H427.97186c0.518183-42.718485 4.031715-85.323222 10.490043-127.548801z m-34.629778 322.34762a367.644381 367.644381 0 0 0 42.680569 110.979591 294.99768 294.99768 0 0 1-130.228186-65.278395 317.671337 317.671337 0 0 1 87.547617-45.701196z m107.023707 117.981378c-28.323114 0-53.385468-50.832469-68.31166-128.47142a336.894655 336.894655 0 0 1 68.31166-6.989148c22.951707 0.012639 45.84022 2.325503 68.324299 6.875401-15.03994 77.752698-39.988546 128.585167-68.324299 128.585167z m194.470215-72.166434a297.462208 297.462208 0 0 1-130.228186 65.278395 368.503806 368.503806 0 0 0 42.667931-111.093339 313.108801 313.108801 0 0 1 87.560255 45.827582z m-120.079386-93.386653a379.4362 379.4362 0 0 0-74.390829-7.229282 388.839322 388.839322 0 0 0-74.37819 7.229282 925.12061 925.12061 0 0 1-8.278287-109.930586h165.43934a1004.225639 1004.225639 0 0 1-8.392034 109.930586z" fill="#40b25b" p-id="32290"></path></svg>