<?xml version="1.0" standalone="no"?><!DOCTYPE svg PUBLIC "-//W3C//DTD SVG 1.1//EN" "http://www.w3.org/Graphics/SVG/1.1/DTD/svg11.dtd"><svg t="1748179421567" class="icon" viewBox="0 0 1435 1024" version="1.1" xmlns="http://www.w3.org/2000/svg" p-id="6061" width="358.75" height="256" xmlns:xlink="http://www.w3.org/1999/xlink"><path d="M1237.61678 633.8c0-4.2-31.6-45.8-40.2-76-8.6-30-24.4-50.2-14.6-54.4 9.8-4.2 7.2 38.6 26.8 27.2 19.4-11.4 56-5.8 3.6-66l2.4-20s48.6 0 56-35.8c7.2-35.8-34-86-29.2-91.8 4.8-5.8 26 5.8 30 11.4 4 5.8 22.2 50.2 38 47.2 4.8-0.8 6-5.6 4.8-12.8 2.4 3.6 10.6 6.6 37.6-4.4 42.6-17.2-7.2-38.8-7.2-38.8l12.2-23-18.2-15.8-12.6 18.6s-3.2 55.8-12.6 58.8c-4-16.8-17-43.2-27.2-66-5-11.2 7.4 3.2 14.6-5.8 16-19.8 42.6-30-13.4-68.8-25.6 4.4-40.2-34.4-19.4-31.6 20.6 2.8 56.4-11.6 65-10.2 8.6 1.4 5.6 30.2 5.6 30.2s25.2 34.4 28 40.2c2.8 5.8 1.2-35.8 1.2-35.8s-28-18.6-19.4-27.2c8.6-8.6 21.8-1.4 30.4-5.8 8.6-4.2 0-28.6 0-28.6s-39-17.2-46.2-28.6c-7.2-11.4-63.2-11.4-91.2-8.6-28-12.8-124-14.4-124-14.4L964.01678 66.4s11.4 24.8 0 30.6c-11.4 5.8-37.2-11.4-42.2 0-4.8 11.4-38.8 21-43.8 24.8-4.8 3.8-17.8 21-17.8 21l-9.8-15.2-5.6 15.2-17 13.8-7.4-10.4-4.8-6.8h19.4s8.6-21.4-28-17.2c-32.8-14.4-57.2-5.8-68 2.8-11 8.6-18.2 27.2-28 31.6-9.8 4.2-8.6 41.6 0 41.6h29.2l11-12.8s14.6-54.4 20.6-38.6c6 15.8-29.2 33 21.8 33-15.4 23-34 30-34 30H728.01678s-34 20-40.2 24.4c-6 4.2-29.2-24.4-29.2-24.4s7.2 37.2 7.2 55.8c0 18.6-30.4 24.4-30.4 24.4s4.8 40.2 6 60.2c-14.6 14.4-14.6 40.2-14.6 40.2l-21.8 12.8-9.8 78.8s-14.6 24.4 0 33c14.6 8.6 39 50.2 39 50.2s25.6 5.8 36.4 0c11-5.8 15.8-38.6 30.4-8.6 14.6 30 15.8 4.2 15.8 4.2s19.4 13 6 47.2c8.6 10 14.6 23 14.6 53v61.6s39 90.2 31.6 111.8c-7.2 21.4 26.8-7.2 39 0s49.8-67.4 45-93.2c-4.8-25.8 30.4-35.8 32.8-48.8 2.4-12.8-2.4-51.6-15.8-63-13.4-11.4 82.6-93.2 66.8-116-15.8-23-31.6 15.8-43.8 8.6-12.2-7.2-8.6-21.4-8.6-21.4s72-5.8 84-35.8c12-30 24.2-76 64.2-4.2 40.2 71.6 56 100.2 65.6 90.2 9.8-10-24.4-68.8 0-76 24.4-7.2 8.6-33 26.8-33 18.2 0 88.8 160.4 65.6 137.6-23-23-32.8-12.8-32.8-12.8s31.6 31.6 56 81.6c15.8-1.4 49.8 1.4 49.8 1.4s-26-11.6-26-15.8z m57-17.6l8.6 17.4c0 0.2 1.2-13-8.6-17.4z m0 0" fill="#71dcd6" p-id="6062"></path><path d="M1268.01678 550.6s-21.8 23-29.2 28.6c-7.2 5.8 8.6 45.8 37.6 37.2 8.4-2.4 14-2 18-0.2l-12-24c0.2 0 7.4-41.6-14.4-41.6z m128.8 127.6l9.8-33 25.6 15.8s18.4-14.4-48.4-60.2c0 0-29.4 5.8-34.2-8.6-4.8-14.4 0 37.2 0 37.2l20.8 4.2 13.4 27.2s22 66 0 51.6c-22-14.4-24.4 2.8-22-14.4 2.4-17.2-10.4-31.6-19.2-23-8.8 8.6-53.8 31.6-65.8 58.8-12.2 27.2-15.8 0-15.8 0l-15.8 21.4 13.4 17.2-13.4 15.8s-21.8 37.2-7.8 44.4c14 7.2 85.6-12.8 85.6-12.8l19.6 38.6s3.4 37.2 12 38.6c8.6 1.4 22.2-37.2 29.4-44.4 7.2-7.2 34-15.8 48.4-76 14.4-59.8-35.6-98.4-35.6-98.4zM479.01678 153.8c14.6 18.6 25.6 31.6 29.2 31.6 3.6 0 88.8-57.8 88.8-57.8s40.4-32.4 31.6-57.8c-31.6-49.2-144.6-10.4-167.8-3.4-23.2 7.2 14.6-15.8 14.6-15.8S416.01678 47.8 400.01678 59.2c-15.8 11.4-48.6 37.2-53.6 37.2-4.8 0-28-12.8-28-12.8l-82.6 17.2s-30.4 15.4-52.2 17c-21.8 1.6-86.4-15.6-86.4-15.6s-62 63-69.2 63c-7.2 0-34 25.8-26.8 30 7.2 4.2 38.8-41.6 74.2-12.8 35.2 28.6 49.8 38.6 36.4 83.2-13.4 44.4-6 139 18.2 166.2 24.4 27.2 64.4 20 81.4 48.8 17 28.6 31.6 48.8 54.8 55.8 23.2 7.2-7.2 57.4-1.2 76s17 53 17 53 15.8 37.2 41.4 54.4c25.6 17.2-29.2 249.4 71.8 262.2-21.8-67.4-30.4-107.4-13.4-113.2 17-5.8 25.6-5.8 25.6-5.8l43.8-110.4s30.4-6.8 28-9.2c-2.4-2.4 7.2-61 9.8-65.4 2.4-4.2 18.2-25.8 11-37.2-7.2-11.4-25.6-30-54.8-40.2-13.4-11.2-24.4-45.8-40.2-50.2-16-4-39-34.4-39-34.4s-20.6 10-42.6 0c-21.8-10-68 7.4-68 7.4s6-25.8-1.2-40.2c-7.2-14.4-18.2 2.8-18.2 2.8s8.6-28.6 3.6-44.4c-4.8-15.8-29.4 12.6-29.4 12.6s-24.2-7-21.8-47C190.81678 367 276.01678 390 276.01678 390l4.8 33 11-56.8 40.4-42.6 81.2-74s23 41.6 32.8 24.4c-6.6-13.2-15.8-28.6-6-44.4-51-78.8 8.6-80.2 8.6-80.2l-34-43s-19.4-11.4-13.4-14.4c6-2.8 14.6-33 36.4-18.6 21.8 14.4 41.4 43 41.4 43s-14.8 18.6-0.2 37.4z m0 0" fill="#71dcd6" p-id="6063"></path></svg>